<mxfile host="app.diagrams.net" agent="Mozilla/5.0 (Windows NT 10.0; Win64; x64) AppleWebKit/537.36 (KHTML, like Gecko) Chrome/129.0.0.0 Safari/537.36" version="24.7.16">
  <diagram name="Page-1" id="wBoN0zmitPIiMLEGoSf_">
    <mxGraphModel dx="1267" dy="721" grid="1" gridSize="10" guides="1" tooltips="1" connect="1" arrows="1" fold="1" page="1" pageScale="1" pageWidth="850" pageHeight="1100" math="0" shadow="0">
      <root>
        <mxCell id="0" />
        <mxCell id="1" parent="0" />
        <mxCell id="T3d5zJTPkzEXYq9BcZ9s-29" value="Decision&lt;br&gt;Context C" style="edgeStyle=orthogonalEdgeStyle;rounded=0;orthogonalLoop=1;jettySize=auto;html=1;entryX=0.5;entryY=0;entryDx=0;entryDy=0;labelPosition=left;verticalLabelPosition=top;align=center;verticalAlign=bottom;" edge="1" parent="1" source="T3d5zJTPkzEXYq9BcZ9s-30" target="T3d5zJTPkzEXYq9BcZ9s-33">
          <mxGeometry x="-0.6" y="-30" relative="1" as="geometry">
            <Array as="points">
              <mxPoint x="260" y="260" />
              <mxPoint x="260" y="370" />
            </Array>
            <mxPoint as="offset" />
          </mxGeometry>
        </mxCell>
        <mxCell id="T3d5zJTPkzEXYq9BcZ9s-47" style="edgeStyle=orthogonalEdgeStyle;rounded=0;orthogonalLoop=1;jettySize=auto;html=1;entryX=0;entryY=0.5;entryDx=0;entryDy=0;" edge="1" parent="1" source="T3d5zJTPkzEXYq9BcZ9s-30" target="T3d5zJTPkzEXYq9BcZ9s-42">
          <mxGeometry relative="1" as="geometry">
            <Array as="points">
              <mxPoint x="260" y="257" />
              <mxPoint x="425" y="257" />
            </Array>
          </mxGeometry>
        </mxCell>
        <mxCell id="T3d5zJTPkzEXYq9BcZ9s-30" value="Architect with a&lt;div&gt;Decision Problem&lt;/div&gt;" style="shape=umlActor;verticalLabelPosition=top;verticalAlign=bottom;html=1;outlineConnect=0;labelPosition=center;align=center;" vertex="1" parent="1">
          <mxGeometry x="245" y="150" width="30" height="60" as="geometry" />
        </mxCell>
        <mxCell id="T3d5zJTPkzEXYq9BcZ9s-31" value="Prompt Processor" style="swimlane;whiteSpace=wrap;html=1;" vertex="1" parent="1">
          <mxGeometry x="190" y="330" width="140" height="180" as="geometry" />
        </mxCell>
        <mxCell id="T3d5zJTPkzEXYq9BcZ9s-32" value="C" style="edgeStyle=orthogonalEdgeStyle;rounded=0;orthogonalLoop=1;jettySize=auto;html=1;" edge="1" parent="T3d5zJTPkzEXYq9BcZ9s-31" source="T3d5zJTPkzEXYq9BcZ9s-33" target="T3d5zJTPkzEXYq9BcZ9s-34">
          <mxGeometry relative="1" as="geometry" />
        </mxCell>
        <mxCell id="T3d5zJTPkzEXYq9BcZ9s-33" value="LLM&lt;div&gt;Encoder&lt;/div&gt;" style="shape=hexagon;perimeter=hexagonPerimeter2;whiteSpace=wrap;html=1;fixedSize=1;" vertex="1" parent="T3d5zJTPkzEXYq9BcZ9s-31">
          <mxGeometry x="25" y="40" width="90" height="40" as="geometry" />
        </mxCell>
        <mxCell id="T3d5zJTPkzEXYq9BcZ9s-34" value="Few Shot&lt;div&gt;Prompt&amp;nbsp;&lt;span style=&quot;background-color: initial;&quot;&gt;Maker&lt;/span&gt;&lt;/div&gt;" style="shape=hexagon;perimeter=hexagonPerimeter2;whiteSpace=wrap;html=1;fixedSize=1;" vertex="1" parent="T3d5zJTPkzEXYq9BcZ9s-31">
          <mxGeometry x="12.5" y="130" width="115" height="40" as="geometry" />
        </mxCell>
        <mxCell id="T3d5zJTPkzEXYq9BcZ9s-35" value="Similar Context and&amp;nbsp;&lt;div&gt;Design Decisions&lt;/div&gt;&lt;div&gt;C1-D1, C2-D2,... Cn-Dn&lt;/div&gt;" style="edgeStyle=orthogonalEdgeStyle;rounded=0;orthogonalLoop=1;jettySize=auto;html=1;entryX=1;entryY=0.5;entryDx=0;entryDy=0;exitX=0.5;exitY=1;exitDx=0;exitDy=0;exitPerimeter=0;" edge="1" parent="1" source="T3d5zJTPkzEXYq9BcZ9s-36" target="T3d5zJTPkzEXYq9BcZ9s-34">
          <mxGeometry relative="1" as="geometry">
            <Array as="points">
              <mxPoint x="470" y="480" />
            </Array>
          </mxGeometry>
        </mxCell>
        <mxCell id="T3d5zJTPkzEXYq9BcZ9s-36" value="Previous&lt;div&gt;Design Decisions&lt;/div&gt;" style="strokeWidth=2;html=1;shape=mxgraph.flowchart.database;whiteSpace=wrap;labelPosition=center;verticalLabelPosition=middle;align=center;verticalAlign=middle;" vertex="1" parent="1">
          <mxGeometry x="430" y="360" width="80" height="60" as="geometry" />
        </mxCell>
        <mxCell id="T3d5zJTPkzEXYq9BcZ9s-37" value="Vectorised&lt;br&gt;C" style="edgeStyle=orthogonalEdgeStyle;rounded=0;orthogonalLoop=1;jettySize=auto;html=1;" edge="1" parent="1" source="T3d5zJTPkzEXYq9BcZ9s-33" target="T3d5zJTPkzEXYq9BcZ9s-36">
          <mxGeometry relative="1" as="geometry" />
        </mxCell>
        <mxCell id="T3d5zJTPkzEXYq9BcZ9s-50" value="Generated&lt;div&gt;Design&lt;/div&gt;&lt;div&gt;Decision&lt;/div&gt;" style="edgeStyle=orthogonalEdgeStyle;rounded=0;orthogonalLoop=1;jettySize=auto;html=1;entryX=1;entryY=0.5;entryDx=0;entryDy=0;" edge="1" parent="1" source="T3d5zJTPkzEXYq9BcZ9s-39" target="T3d5zJTPkzEXYq9BcZ9s-42">
          <mxGeometry relative="1" as="geometry" />
        </mxCell>
        <mxCell id="T3d5zJTPkzEXYq9BcZ9s-39" value="&lt;div&gt;Finetuned&lt;/div&gt;Generative&lt;div&gt;LLM&lt;/div&gt;" style="shape=hexagon;perimeter=hexagonPerimeter2;whiteSpace=wrap;html=1;fixedSize=1;" vertex="1" parent="1">
          <mxGeometry x="215" y="630" width="90" height="50" as="geometry" />
        </mxCell>
        <mxCell id="T3d5zJTPkzEXYq9BcZ9s-40" value="Few shot Prompt&lt;div&gt;(Decision Context&lt;div&gt;along with similar&lt;/div&gt;&lt;div&gt;Design Decisions)&lt;/div&gt;&lt;/div&gt;&lt;div&gt;C1-D1, C2-D2,...Cn-Dn, C&lt;/div&gt;" style="edgeStyle=orthogonalEdgeStyle;rounded=0;orthogonalLoop=1;jettySize=auto;html=1;" edge="1" parent="1" source="T3d5zJTPkzEXYq9BcZ9s-34" target="T3d5zJTPkzEXYq9BcZ9s-39">
          <mxGeometry relative="1" as="geometry" />
        </mxCell>
        <mxCell id="T3d5zJTPkzEXYq9BcZ9s-41" value="Invalid Decision&lt;br&gt;D doesn&#39;t follow C" style="edgeStyle=orthogonalEdgeStyle;rounded=0;orthogonalLoop=1;jettySize=auto;html=1;entryX=0.75;entryY=0;entryDx=0;entryDy=0;exitX=0.5;exitY=1;exitDx=0;exitDy=0;" edge="1" parent="1" source="T3d5zJTPkzEXYq9BcZ9s-42" target="T3d5zJTPkzEXYq9BcZ9s-31">
          <mxGeometry relative="1" as="geometry">
            <Array as="points">
              <mxPoint x="465" y="300" />
              <mxPoint x="295" y="300" />
            </Array>
          </mxGeometry>
        </mxCell>
        <mxCell id="T3d5zJTPkzEXYq9BcZ9s-49" value="Design&lt;div&gt;Decision&lt;/div&gt;" style="edgeStyle=orthogonalEdgeStyle;rounded=0;orthogonalLoop=1;jettySize=auto;html=1;" edge="1" parent="1" source="T3d5zJTPkzEXYq9BcZ9s-42">
          <mxGeometry x="0.4896" relative="1" as="geometry">
            <mxPoint x="280" y="179.9999999999999" as="targetPoint" />
            <Array as="points">
              <mxPoint x="465" y="180" />
            </Array>
            <mxPoint as="offset" />
          </mxGeometry>
        </mxCell>
        <mxCell id="T3d5zJTPkzEXYq9BcZ9s-51" value="Valid Decision&lt;div&gt;D follows C&lt;/div&gt;" style="edgeLabel;html=1;align=center;verticalAlign=middle;resizable=0;points=[];" vertex="1" connectable="0" parent="T3d5zJTPkzEXYq9BcZ9s-49">
          <mxGeometry x="-0.7408" y="-1" relative="1" as="geometry">
            <mxPoint as="offset" />
          </mxGeometry>
        </mxCell>
        <mxCell id="T3d5zJTPkzEXYq9BcZ9s-42" value="Validator" style="rhombus;whiteSpace=wrap;html=1;" vertex="1" parent="1">
          <mxGeometry x="425" y="230" width="80" height="55" as="geometry" />
        </mxCell>
      </root>
    </mxGraphModel>
  </diagram>
</mxfile>
